<svg width="32" height="36" viewBox="0 0 32 36" fill="none" xmlns="http://www.w3.org/2000/svg">
<path d="M8.7922 5.6253L16.2275 9.91806" stroke="white" stroke-width="0.5"/>
<path d="M15.9146 10.4618L15.9142 10.4616L8.4793 6.16909C8.47926 6.16907 8.47923 6.16905 8.47919 6.16902L15.9146 10.4618ZM15.9146 10.4618C16.2142 10.6341 16.5973 10.532 16.7701 10.2314C16.9425 9.93169 16.8403 9.54864 16.5397 9.37582L9.10559 5.08373L15.9146 10.4618Z" fill="white" stroke="white" stroke-width="0.5"/>
<path d="M1.84106 18.2131L9.27631 13.9204" stroke="white" stroke-width="0.5"/>
<path d="M30.9382 9.09202L30.937 9.09135L16.5413 0.780154C16.5411 0.780022 16.5409 0.779891 16.5406 0.77976C16.3473 0.667081 16.1072 0.667081 15.9138 0.779761C15.9136 0.779892 15.9133 0.780023 15.9131 0.780154L1.51834 9.0908C1.51815 9.0909 1.51796 9.09101 1.51777 9.09112C1.32399 9.20213 1.20443 9.40986 1.20443 9.63266L1.20442 26.2578C1.20442 26.4824 1.32541 26.687 1.51623 26.7985L1.51737 26.7991L15.9131 35.1103C15.9133 35.1105 15.9135 35.1106 15.9137 35.1107C16.1071 35.2234 16.3473 35.2234 16.5407 35.1107C16.5409 35.1106 16.5411 35.1105 16.5413 35.1103L30.9361 26.7997C30.9363 26.7996 30.9364 26.7995 30.9366 26.7994C31.1304 26.6884 31.25 26.4807 31.25 26.2578L31.25 9.63266C31.25 9.40809 31.129 9.20353 30.9382 9.09202ZM16.2272 33.848L2.45622 25.897L2.45622 9.995L16.2272 2.044L29.9982 9.99501L29.9982 25.897L16.2272 33.848Z" fill="white" stroke="white" stroke-width="0.5"/>
<path d="M9.15076 13.7149L9.02575 13.7871L9.02575 13.9314L9.02575 21.9576L9.02575 22.1019L9.15075 22.1741L16.1019 26.1872L16.2269 26.2594L16.3519 26.1872L23.303 22.1741L23.428 22.1019L23.428 21.9576L23.428 13.9314L23.428 13.7871L23.303 13.7149L16.3519 9.70183L16.2269 9.62966L16.1019 9.70183L9.15076 13.7149Z" stroke="white" stroke-width="0.5"/>
<path d="M8.96321 13.3887L8.96207 13.3894C8.7703 13.5014 8.65026 13.708 8.65026 13.9315L8.65026 21.9577C8.65026 22.1832 8.77078 22.388 8.96207 22.4998L8.96321 22.5004L15.9132 26.5128C15.9134 26.513 15.9137 26.5131 15.9139 26.5133C16.1073 26.6259 16.3473 26.6259 16.5406 26.5133C16.5408 26.5131 16.5411 26.513 16.5414 26.5128L23.4913 22.5004L23.4925 22.4998C23.6842 22.3877 23.8043 22.1811 23.8043 21.9577L23.8043 13.9315C23.8043 13.7059 23.6837 13.5012 23.4925 13.3894L23.4913 13.3887L16.5414 9.37628C16.5411 9.37616 16.5409 9.37603 16.5407 9.37591C16.3473 9.26321 16.1072 9.26321 15.9138 9.37591C15.9136 9.37603 15.9134 9.37616 15.9132 9.37628L8.96321 13.3887ZM16.2273 25.2475L9.90206 21.5953L9.90206 14.2923L16.2273 10.6401L22.5525 14.2923L22.5525 21.5953L16.2273 25.2475Z" fill="white" stroke="white" stroke-width="0.5"/>
<path d="M22.5525 5.33336L22.5525 13.9189C22.5525 14.2644 22.8328 14.5448 23.1784 14.5448C23.5239 14.5448 23.8043 14.2644 23.8043 13.9189L23.8043 5.33336C23.8043 4.98779 23.5239 4.70746 23.1784 4.70746C22.8328 4.70746 22.5525 4.98779 22.5525 5.33336Z" fill="white" stroke="white" stroke-width="0.5"/>
<path d="M1.52611 17.6711L1.52775 17.6701L1.52775 17.6701L8.96301 13.3773L8.96339 13.3771C9.26371 13.2044 9.64356 13.3079 9.81773 13.604L9.81852 13.6053L9.81852 13.6053C9.99231 13.905 9.88776 14.2871 9.58987 14.4609L9.58891 14.4614L9.5889 14.4614L2.15365 18.7542L2.15327 18.7544C1.85354 18.9268 1.47278 18.8243 1.29988 18.5251C1.24253 18.4274 1.21506 18.3196 1.2148 18.2129L1.52611 17.6711ZM1.52611 17.6711C1.328 17.7875 1.21533 17.9961 1.2148 18.2114L1.52611 17.6711Z" fill="white" stroke="white" stroke-width="0.5"/>
<path d="M8.65017 21.964L8.65017 30.5495C8.65017 30.8951 8.9305 31.1754 9.27606 31.1754C9.62163 31.1754 9.90196 30.8951 9.90196 30.5495L9.90196 21.964C9.90196 21.6184 9.62163 21.3381 9.27606 21.3381C8.9305 21.3381 8.65017 21.6184 8.65017 21.964Z" fill="white" stroke="white" stroke-width="0.5"/>
<path d="M23.6624 30.2624L16.2272 25.9697" stroke="white" stroke-width="0.5"/>
<path d="M23.3501 30.8051L23.3498 30.8049L15.9149 26.5123C15.9149 26.5123 15.9148 26.5123 15.9148 26.5123L15.9145 26.5121L16.0395 26.2956L23.3501 30.8051ZM23.3501 30.8051C23.6498 30.9774 24.0329 30.8752 24.2057 30.5747C24.378 30.275 24.2758 29.8919 23.9753 29.7191L16.5408 25.4268L23.3501 30.8051Z" fill="white" stroke="white" stroke-width="0.5"/>
<path d="M30.6136 17.6721L23.1784 21.9648" stroke="white" stroke-width="0.5"/>
<path d="M22.864 21.4227L22.8657 21.4217L22.8657 21.4217L30.3009 17.1289L30.3013 17.1287C30.602 16.9558 30.9822 17.0597 31.1561 17.3578L31.1564 17.3584L31.1564 17.3584C31.3299 17.6575 31.2264 18.0406 30.9267 18.2131L30.9268 18.213L30.8018 17.9965L30.9264 18.2132L22.864 21.4227ZM22.864 21.4227C22.6654 21.5393 22.5527 21.7488 22.5527 21.9645M22.864 21.4227L22.5527 21.9645M22.5527 21.9645C22.5527 22.0719 22.5803 22.1804 22.638 22.2787L22.5527 21.9645Z" fill="white" stroke="white" stroke-width="0.5"/>
</svg>
